<?xml version="1.0" encoding="iso-8859-1"?>
<!-- Generator: Adobe Illustrator 18.0.0, SVG Export Plug-In . SVG Version: 6.00 Build 0)  -->
<!DOCTYPE svg PUBLIC "-//W3C//DTD SVG 1.1//EN" "http://www.w3.org/Graphics/SVG/1.1/DTD/svg11.dtd">
<svg xmlns="http://www.w3.org/2000/svg" xmlns:xlink="http://www.w3.org/1999/xlink" version="1.1" id="Capa_1" x="0px" y="0px" viewBox="0 0 343.239 343.239" style="enable-background:new 0 0 343.239 343.239;" xml:space="preserve" width="512px" height="512px">
<g>
	<path d="M264.002,27.049C264.002,12.134,251.868,0,236.954,0c-7.943,0-15.096,3.44-20.049,8.91C211.952,3.44,204.798,0,196.855,0   c-7.943,0-15.096,3.44-20.049,8.91C171.854,3.44,164.7,0,156.757,0c-14.915,0-27.049,12.134-27.049,27.049v111.13l-0.318-0.404   c-9.578-12.168-27.271-14.274-39.439-4.698c-5.895,4.64-9.63,11.298-10.517,18.747c-0.199,1.672-0.241,3.338-0.147,4.985   c-0.031,0.266-0.051,0.536-0.051,0.811v68.538c0,28.926,13.366,54.785,34.242,71.739v38.342c0,3.866,3.134,7,7,7h102.294   c3.866,0,7-3.134,7-7v-38.247c2.696-2.191,5.29-4.541,7.762-7.057c17.411-17.719,26.796-41.152,26.456-66.017   c0.003-0.081,0.012-0.161,0.012-0.242V27.049z M143.708,27.049c0-7.195,5.854-13.049,13.049-13.049s13.049,5.854,13.049,13.049   v119.762c0,3.866,3.134,7,7,7s7-3.134,7-7V27.049c0-7.195,5.854-13.049,13.049-13.049s13.049,5.854,13.049,13.049v119.762   c0,3.866,3.134,7,7,7s7-3.134,7-7V27.049c0-7.195,5.854-13.049,13.049-13.049s13.049,5.854,13.049,13.049v165.388L182.3,168.323   c-10.471-3.729-21.707-0.902-29.213,6.334c-0.566-5.011-2.481-9.928-5.822-14.174l-3.556-4.518V27.049z M93.336,153.48   c0.445-3.736,2.318-7.075,5.274-9.402c2.577-2.028,5.646-3.011,8.696-3.011c4.173,0,8.307,1.841,11.083,5.367l17.874,22.708   c4.804,6.103,3.747,14.976-2.356,19.779c-2.957,2.327-6.638,3.366-10.377,2.918c-3.736-0.445-7.075-2.318-9.401-5.274   l-17.874-22.708C93.928,160.902,92.891,157.216,93.336,153.48z M215.773,329.239h-88.294v-21.94   c13.124,7.169,28.168,11.249,44.147,11.249c15.702,0,30.773-3.869,44.147-11.156V329.239z M227.549,281.123   c-14.844,15.105-34.704,23.425-55.923,23.425c-43.224,0-78.389-35.165-78.389-78.389v-43.5l9.891,12.566   c4.64,5.895,11.297,9.63,18.747,10.517c1.129,0.135,2.257,0.201,3.377,0.201c6.267,0,12.314-2.084,17.315-6.021   c0.715-0.563,1.393-1.157,2.039-1.773c0.345,3.093,1.201,6.14,2.575,9.034c3.247,6.84,8.964,12.006,16.097,14.547l41.947,14.941   c0.776,0.276,1.569,0.408,2.349,0.408c2.877,0,5.574-1.788,6.594-4.653c1.297-3.642-0.604-7.646-4.246-8.943l-41.946-14.941   c-3.61-1.286-6.503-3.901-8.147-7.363s-1.841-7.356-0.555-10.967c2.654-7.452,10.875-11.355,18.33-8.702l71.654,25.522   c0.247,0.088,0.496,0.158,0.746,0.218v17.178c-0.004,0.123-0.014,0.245-0.012,0.369   C250.362,246.014,242.392,266.017,227.549,281.123z" fill="#C7C9C9"/>
</g>
<g>
</g>
<g>
</g>
<g>
</g>
<g>
</g>
<g>
</g>
<g>
</g>
<g>
</g>
<g>
</g>
<g>
</g>
<g>
</g>
<g>
</g>
<g>
</g>
<g>
</g>
<g>
</g>
<g>
</g>
</svg>
