<?xml version="1.0" encoding="iso-8859-1"?>
<!-- Generator: Adobe Illustrator 18.0.0, SVG Export Plug-In . SVG Version: 6.00 Build 0)  -->
<!DOCTYPE svg PUBLIC "-//W3C//DTD SVG 1.1//EN" "http://www.w3.org/Graphics/SVG/1.1/DTD/svg11.dtd">
<svg xmlns="http://www.w3.org/2000/svg" xmlns:xlink="http://www.w3.org/1999/xlink" version="1.1" id="Capa_1" x="0px" y="0px" viewBox="0 0 331.686 331.686" style="enable-background:new 0 0 331.686 331.686;" xml:space="preserve" width="512px" height="512px">
<g>
	<path d="M236.822,0c-15.486,0-28.085,12.599-28.085,28.084v13.351l-2.359-14.067c-0.02-0.121-0.043-0.241-0.07-0.36   C202.95,11.891,187.916,2.323,172.802,5.68c-15.026,3.338-24.57,18.209-21.387,33.234l8.511,58.484   c-5.095-7.161-13.454-11.846-22.893-11.846c-11.206,0-20.896,6.599-25.399,16.113c-4.683-3.498-10.49-5.571-16.771-5.571   c-15.485,0-28.084,12.599-28.084,28.084v0.817v28.082v52.543c0,31.184,14.488,59.043,37.081,77.216   c0,0.033-0.005,0.065-0.005,0.098v41.75c0,3.866,3.134,7,7,7H220.83c3.866,0,7-3.134,7-7v-41.75c0-0.033-0.004-0.065-0.005-0.098   c22.593-18.172,37.081-46.032,37.081-77.216V28.084C264.906,12.599,252.308,0,236.822,0z M175.837,19.347   c7.526-1.674,15.013,3.046,16.768,10.536l16.148,96.293c0.241,3.647,3.276,6.531,6.984,6.531c3.866,0,7-3.134,7-7V28.084   c0-7.766,6.318-14.084,14.085-14.084c7.766,0,14.084,6.318,14.084,14.084v141.961l-69.884-24.892L165.234,36.661   c-0.024-0.171-0.056-0.341-0.093-0.51C163.458,28.569,168.256,21.031,175.837,19.347z M166.424,142.054   c-0.437,0.01-0.872,0.028-1.306,0.057v-9.032L166.424,142.054z M122.948,113.638c0-7.767,6.318-14.085,14.085-14.085   s14.085,6.318,14.085,14.085v33.034c-5.512,3.462-9.949,8.72-12.298,15.314c-0.607,1.706-1.041,3.431-1.329,5.158   c-0.153,0.005-0.305,0.019-0.458,0.019c-7.767,0-14.085-6.318-14.085-14.084V124.18V113.638z M80.779,124.18   c0-7.766,6.318-14.084,14.084-14.084c7.767,0,14.085,6.318,14.085,14.084v28.899c0,7.766-6.318,14.084-14.085,14.084   c-7.766,0-14.084-6.318-14.084-14.084v-28.082V124.18z M213.83,317.686h-95.975V292.26c14.226,7.911,30.588,12.426,47.987,12.426   s33.762-4.515,47.987-12.426V317.686z M165.843,290.685c-46.904,0-85.063-38.159-85.063-85.063v-28.261   c4.144,2.413,8.953,3.802,14.084,3.802c8.394,0,15.934-3.706,21.085-9.563c5.151,5.856,12.691,9.563,21.085,9.563   c0.489,0,0.974-0.037,1.459-0.062c2.745,8.645,9.349,15.96,18.533,19.231l45.226,16.109c0.776,0.276,1.569,0.408,2.349,0.408   c2.877,0,5.573-1.788,6.594-4.653c1.298-3.642-0.604-7.646-4.245-8.943l-45.226-16.109c-8.319-2.963-12.677-12.142-9.714-20.461   c2.965-8.319,12.142-12.678,20.462-9.714l78.436,27.938v20.715C250.906,252.526,212.747,290.685,165.843,290.685z" fill="#C7C9C9"/>
</g>
<g>
</g>
<g>
</g>
<g>
</g>
<g>
</g>
<g>
</g>
<g>
</g>
<g>
</g>
<g>
</g>
<g>
</g>
<g>
</g>
<g>
</g>
<g>
</g>
<g>
</g>
<g>
</g>
<g>
</g>
</svg>
