<?xml version="1.0" encoding="iso-8859-1"?>
<!-- Generator: Adobe Illustrator 18.0.0, SVG Export Plug-In . SVG Version: 6.00 Build 0)  -->
<!DOCTYPE svg PUBLIC "-//W3C//DTD SVG 1.1//EN" "http://www.w3.org/Graphics/SVG/1.1/DTD/svg11.dtd">
<svg xmlns="http://www.w3.org/2000/svg" xmlns:xlink="http://www.w3.org/1999/xlink" version="1.1" id="Capa_1" x="0px" y="0px" viewBox="0 0 253.859 253.859" style="enable-background:new 0 0 253.859 253.859;" xml:space="preserve" width="512px" height="512px">
<g>
	<path d="M190.972,11c-6.33,0-12.181,2.086-16.904,5.606C169.595,6.82,159.721,0,148.277,0c-8.508,0-16.147,3.773-21.348,9.728   C121.729,3.773,114.09,0,105.582,0C94.138,0,84.264,6.82,79.792,16.606C75.068,13.086,69.217,11,62.888,11   C47.257,11,34.54,23.717,34.54,39.348v31.634v65.796c0,28.926,13.367,54.786,34.243,71.739v38.342c0,3.866,3.134,7,7,7h102.293   c3.866,0,7-3.134,7-7v-38.342c20.876-16.953,34.243-42.813,34.243-71.739V39.348C219.319,23.717,206.603,11,190.972,11z    M190.972,25c7.911,0,14.348,6.437,14.348,14.348v63.715l-28.695-10.221V80.865V39.348C176.624,31.437,183.061,25,190.972,25z    M148.277,14c7.911,0,14.347,6.437,14.347,14.348v11v41.518c0,2.282-0.531,4.464-1.533,6.443l-23.487-8.366   c-1.217-0.433-2.444-0.77-3.675-1.029V28.348C133.93,20.437,140.366,14,148.277,14z M91.235,28.348   c0-7.911,6.436-14.348,14.347-14.348s14.348,6.437,14.348,14.348v50.169c-7.877,2.381-14.631,8.14-17.994,16.208   c-6.147-1.62-10.7-7.211-10.7-13.86v-9.883V39.348V28.348z M48.54,39.348C48.54,31.437,54.977,25,62.888,25   s14.348,6.437,14.348,14.348v31.634c0,7.911-6.437,14.347-14.348,14.347S48.54,78.893,48.54,70.982V39.348z M171.076,239.859   H82.783v-21.94c13.124,7.169,28.168,11.248,44.146,11.248s31.022-4.079,44.146-11.248V239.859z M126.93,215.167   c-43.225,0-78.39-35.165-78.39-78.389V95.415c4.212,2.483,9.115,3.914,14.348,3.914c6.505,0,12.501-2.208,17.29-5.906   c3.827,7.71,11.056,13.445,19.715,15.216c0.335,3.138,1.198,6.23,2.591,9.165c3.247,6.84,8.964,12.007,16.097,14.547l41.947,14.941   c0.776,0.276,1.568,0.408,2.349,0.408c2.877,0,5.573-1.788,6.594-4.653c1.298-3.642-0.604-7.646-4.245-8.943l-41.947-14.941   c-7.452-2.654-11.355-10.877-8.701-18.33s10.878-11.354,18.33-8.702l72.412,25.793v18.854   C205.319,180.002,170.154,215.167,126.93,215.167z" fill="#C7C9C9"/>
</g>
<g>
</g>
<g>
</g>
<g>
</g>
<g>
</g>
<g>
</g>
<g>
</g>
<g>
</g>
<g>
</g>
<g>
</g>
<g>
</g>
<g>
</g>
<g>
</g>
<g>
</g>
<g>
</g>
<g>
</g>
</svg>
