<?xml version="1.0" encoding="iso-8859-1"?>
<!-- Generator: Adobe Illustrator 18.0.0, SVG Export Plug-In . SVG Version: 6.00 Build 0)  -->
<!DOCTYPE svg PUBLIC "-//W3C//DTD SVG 1.1//EN" "http://www.w3.org/Graphics/SVG/1.1/DTD/svg11.dtd">
<svg xmlns="http://www.w3.org/2000/svg" xmlns:xlink="http://www.w3.org/1999/xlink" version="1.1" id="Capa_1" x="0px" y="0px" viewBox="0 0 319.716 319.716" style="enable-background:new 0 0 319.716 319.716;" xml:space="preserve" width="512px" height="512px">
<g>
	<path d="M223.899,0c-15.631,0-28.347,12.717-28.347,28.348v52.423c-4.212-2.483-9.115-3.914-14.348-3.914   c-8.508,0-16.146,3.773-21.347,9.727c-5.2-5.954-12.839-9.727-21.347-9.727s-16.147,3.773-21.347,9.727   c-5.2-5.954-12.839-9.727-21.347-9.727c-15.631,0-28.348,12.716-28.348,28.347v31.634c0,0.423,0.014,0.844,0.032,1.262   c-0.019,0.209-0.032,0.421-0.032,0.635v63.899c0,28.926,13.366,54.785,34.242,71.738v38.342c0,3.866,3.134,7,7,7h102.294   c3.866,0,7-3.134,7-7v-38.342c20.876-16.953,34.242-42.813,34.242-71.739V28.348C252.247,12.717,239.53,0,223.899,0z    M209.553,28.348c0-7.911,6.436-14.348,14.347-14.348s14.348,6.437,14.348,14.348v140.571l-31.003-11.043   c1.5-3.507,2.309-7.304,2.309-11.154v-39.594v-1.924V28.348z M181.205,90.857c7.911,0,14.348,6.436,14.348,14.347v1.924v39.594   c0,2.282-0.532,4.463-1.534,6.443l-23.487-8.366c-1.216-0.433-2.444-0.77-3.674-1.029v-38.566   C166.858,97.293,173.294,90.857,181.205,90.857z M138.511,90.857c7.911,0,14.348,6.436,14.348,14.347v39.169   c-7.877,2.381-14.632,8.14-17.995,16.209c-6.147-1.62-10.7-7.211-10.7-13.859v-9.884v-31.634   C124.163,97.293,130.6,90.857,138.511,90.857z M81.469,105.204c0-7.911,6.437-14.347,14.348-14.347s14.347,6.436,14.347,14.347   v31.634c0,7.911-6.436,14.348-14.347,14.348s-14.348-6.437-14.348-14.348V105.204z M204.005,305.716h-88.294v-21.94   c13.125,7.169,28.168,11.249,44.147,11.249c15.979,0,31.022-4.079,44.146-11.248V305.716z M159.857,281.024   c-43.224,0-78.389-35.165-78.389-78.389v-41.363c4.212,2.483,9.115,3.914,14.348,3.914c6.505,0,12.5-2.208,17.29-5.906   c3.829,7.714,11.063,13.45,19.729,15.218c1.131,10.487,8.092,19.94,18.675,23.71l41.946,14.941   c0.776,0.276,1.569,0.408,2.349,0.408c2.877,0,5.573-1.788,6.594-4.653c1.298-3.642-0.604-7.646-4.245-8.943l-41.946-14.941   c-7.452-2.655-11.356-10.877-8.702-18.33c2.654-7.453,10.877-11.356,18.33-8.701l72.412,25.792v18.855   C238.247,245.859,203.082,281.024,159.857,281.024z" fill="#C7C9C9"/>
</g>
<g>
</g>
<g>
</g>
<g>
</g>
<g>
</g>
<g>
</g>
<g>
</g>
<g>
</g>
<g>
</g>
<g>
</g>
<g>
</g>
<g>
</g>
<g>
</g>
<g>
</g>
<g>
</g>
<g>
</g>
</svg>
